# MagicaVoxel @ Ephtracy

# group
o 

# material
mtllib Monster.mtl
usemtl palette

# normals
vn -1 0 0
vn 1 0 0
vn 0 0 1
vn 0 0 -1
vn 0 -1 0
vn 0 1 0

# texcoords
vt 0.841797 0.5
vt 0.900391 0.5
vt 0.978516 0.5
vt 0.982422 0.5

# verts
v -0.4 0 0.4
v -0.4 0 -0.6
v -0.4 0.1 0.3
v -0.4 0.1 -0.5
v -0.4 0.3 0.3
v -0.4 0.3 -0.5
v -0.4 0.4 0.4
v -0.4 0.4 -0.6
v -0.3 0.1 0.3
v -0.3 0.1 -0.5
v -0.3 0.3 0.3
v -0.3 0.3 -0.5
v -0.3 0.4 0.3
v -0.3 0.4 -0.4
v -0.3 0.5 0.3
v -0.3 0.5 0.1
v -0.3 0.5 -0.2
v -0.3 0.5 -0.4
v -0.3 0.7 0.1
v -0.3 0.7 -0.2
v -0.2 0.5 -0.2
v -0.2 0.5 -0.3
v -0.2 0.7 -0.2
v -0.2 0.7 -0.3
v -0.1 0.5 0.3
v -0.1 0.5 0.1
v -0.1 0.6 0.3
v -0.1 0.6 0.1
v 0 0.6 0.2
v 0 0.6 0.1
v 0 0.7 0.1
v 0 0.7 -0.3
v 0 0.8 0.2
v 0 0.8 0.1
v 0 0.8 -0.2
v 0 0.8 -0.3
v 0 0.9 0.3
v 0 0.9 0.1
v 0 0.9 0
v 0 0.9 -0.2
v 0 1 0.3
v 0 1 0
v 0.2 0.6 0.2
v 0.2 0.6 0.1
v 0.2 0.7 -0.2
v 0.2 0.7 -0.3
v 0.2 0.8 0.2
v 0.2 0.8 0.1
v 0.2 0.8 -0.2
v 0.2 0.8 -0.3
v 0.2 0.9 0.3
v 0.2 0.9 0.1
v 0.2 0.9 0
v 0.2 1 0.3
v 0.2 1 0
v 0.3 0.5 0.3
v 0.3 0.5 0.1
v 0.3 0.6 0.3
v 0.3 0.6 0.1
v 0.3 0.7 0.1
v 0.3 0.7 -0.2
v 0.3 0.9 0.1
v 0.3 0.9 -0.2
v 0.5 0.1 0.3
v 0.5 0.1 -0.5
v 0.5 0.3 0.3
v 0.5 0.3 -0.5
v 0.5 0.4 0.3
v 0.5 0.4 -0.4
v 0.5 0.5 0.3
v 0.5 0.5 0.1
v 0.5 0.5 -0.3
v 0.5 0.5 -0.4
v 0.5 0.7 0.1
v 0.5 0.7 -0.3
v 0.6 0 0.4
v 0.6 0 -0.6
v 0.6 0.1 0.3
v 0.6 0.1 -0.5
v 0.6 0.3 0.3
v 0.6 0.3 -0.5
v 0.6 0.4 0.4
v 0.6 0.4 -0.6
v -0.4 0 0.4
v -0.4 0.4 0.4
v -0.3 0 0.4
v -0.3 0.4 0.4
v -0.1 0.2 0.4
v -0.1 0.3 0.4
v 0 0.2 0.4
v 0 0.3 0.4
v 0.2 0.2 0.4
v 0.2 0.3 0.4
v 0.3 0.2 0.4
v 0.3 0.3 0.4
v 0.5 0 0.4
v 0.5 0.4 0.4
v 0.6 0 0.4
v 0.6 0.4 0.4
v -0.3 0.4 0.3
v -0.3 0.5 0.3
v -0.1 0.5 0.3
v -0.1 0.6 0.3
v 0 0.9 0.3
v 0 1 0.3
v 0.2 0.9 0.3
v 0.2 1 0.3
v 0.3 0.5 0.3
v 0.3 0.6 0.3
v 0.5 0.4 0.3
v 0.5 0.5 0.3
v 0 0.6 0.2
v 0 0.8 0.2
v 0.2 0.6 0.2
v 0.2 0.8 0.2
v -0.3 0.5 0.1
v -0.3 0.7 0.1
v -0.1 0.5 0.1
v -0.1 0.6 0.1
v 0 0.6 0.1
v 0 0.7 0.1
v 0 0.8 0.1
v 0 0.9 0.1
v 0.2 0.6 0.1
v 0.2 0.8 0.1
v 0.2 0.9 0.1
v 0.3 0.5 0.1
v 0.3 0.6 0.1
v 0.3 0.7 0.1
v 0.3 0.9 0.1
v 0.5 0.5 0.1
v 0.5 0.7 0.1
v -0.4 0.1 -0.5
v -0.4 0.3 -0.5
v -0.3 0.1 -0.5
v -0.3 0.3 -0.5
v 0.5 0.1 -0.5
v 0.5 0.3 -0.5
v 0.6 0.1 -0.5
v 0.6 0.3 -0.5
v -0.4 0.1 0.3
v -0.4 0.3 0.3
v -0.3 0.1 0.3
v -0.3 0.3 0.3
v 0.5 0.1 0.3
v 0.5 0.3 0.3
v 0.6 0.1 0.3
v 0.6 0.3 0.3
v 0 0.9 0
v 0 1 0
v 0.2 0.9 0
v 0.2 1 0
v -0.3 0.5 -0.2
v -0.3 0.7 -0.2
v -0.2 0.5 -0.2
v -0.2 0.7 -0.2
v 0 0.8 -0.2
v 0 0.9 -0.2
v 0.2 0.7 -0.2
v 0.2 0.8 -0.2
v 0.3 0.7 -0.2
v 0.3 0.9 -0.2
v -0.2 0.5 -0.3
v -0.2 0.7 -0.3
v 0 0.7 -0.3
v 0 0.8 -0.3
v 0.2 0.7 -0.3
v 0.2 0.8 -0.3
v 0.5 0.5 -0.3
v 0.5 0.7 -0.3
v -0.3 0.4 -0.4
v -0.3 0.5 -0.4
v 0.5 0.4 -0.4
v 0.5 0.5 -0.4
v -0.4 0 -0.6
v -0.4 0.4 -0.6
v -0.3 0 -0.6
v -0.3 0.4 -0.6
v -0.1 0.1 -0.6
v -0.1 0.3 -0.6
v 0 0.1 -0.6
v 0 0.3 -0.6
v 0.2 0.1 -0.6
v 0.2 0.3 -0.6
v 0.3 0.1 -0.6
v 0.3 0.3 -0.6
v 0.5 0 -0.6
v 0.5 0.4 -0.6
v 0.6 0 -0.6
v 0.6 0.4 -0.6
v -0.4 0 0.4
v -0.3 0 0.4
v 0.5 0 0.4
v 0.6 0 0.4
v -0.4 0 -0.6
v -0.3 0 -0.6
v 0.5 0 -0.6
v 0.6 0 -0.6
v -0.4 0.3 0.3
v -0.3 0.3 0.3
v 0.5 0.3 0.3
v 0.6 0.3 0.3
v -0.4 0.3 -0.5
v -0.3 0.3 -0.5
v 0.5 0.3 -0.5
v 0.6 0.3 -0.5
v 0 0.9 0.3
v 0.2 0.9 0.3
v 0 0.9 0.1
v 0.2 0.9 0.1
v -0.4 0.1 0.3
v -0.3 0.1 0.3
v 0.5 0.1 0.3
v 0.6 0.1 0.3
v -0.4 0.1 -0.5
v -0.3 0.1 -0.5
v 0.5 0.1 -0.5
v 0.6 0.1 -0.5
v -0.4 0.4 0.4
v -0.3 0.4 0.4
v 0.5 0.4 0.4
v 0.6 0.4 0.4
v -0.3 0.4 0.3
v 0.5 0.4 0.3
v -0.3 0.4 -0.4
v 0.5 0.4 -0.4
v -0.4 0.4 -0.6
v -0.3 0.4 -0.6
v 0.5 0.4 -0.6
v 0.6 0.4 -0.6
v -0.3 0.5 0.3
v -0.1 0.5 0.3
v 0.3 0.5 0.3
v 0.5 0.5 0.3
v -0.3 0.5 0.1
v -0.1 0.5 0.1
v 0.3 0.5 0.1
v 0.5 0.5 0.1
v -0.3 0.5 -0.2
v -0.2 0.5 -0.2
v -0.2 0.5 -0.3
v 0.5 0.5 -0.3
v -0.3 0.5 -0.4
v 0.5 0.5 -0.4
v -0.1 0.6 0.3
v 0.3 0.6 0.3
v 0 0.6 0.2
v 0.2 0.6 0.2
v -0.1 0.6 0.1
v 0 0.6 0.1
v 0.2 0.6 0.1
v 0.3 0.6 0.1
v -0.3 0.7 0.1
v 0 0.7 0.1
v 0.3 0.7 0.1
v 0.5 0.7 0.1
v -0.3 0.7 -0.2
v -0.2 0.7 -0.2
v 0.2 0.7 -0.2
v 0.3 0.7 -0.2
v -0.2 0.7 -0.3
v 0 0.7 -0.3
v 0.2 0.7 -0.3
v 0.5 0.7 -0.3
v 0 0.8 0.2
v 0.2 0.8 0.2
v 0 0.8 0.1
v 0.2 0.8 0.1
v 0 0.8 -0.2
v 0.2 0.8 -0.2
v 0 0.8 -0.3
v 0.2 0.8 -0.3
v 0.2 0.9 0.1
v 0.3 0.9 0.1
v 0 0.9 0
v 0.2 0.9 0
v 0 0.9 -0.2
v 0.3 0.9 -0.2
v 0 1 0.3
v 0.2 1 0.3
v 0 1 0
v 0.2 1 0

# faces
f 3/3/1 2/3/1 1/3/1
f 4/3/1 2/3/1 3/3/1
f 5/3/1 3/3/1 1/3/1
f 6/3/1 2/3/1 4/3/1
f 7/3/1 5/3/1 1/3/1
f 7/3/1 6/3/1 5/3/1
f 8/3/1 2/3/1 6/3/1
f 8/3/1 6/3/1 7/3/1
f 11/2/1 10/2/1 9/2/1
f 12/2/1 10/2/1 11/2/1
f 15/2/1 14/2/1 13/2/1
f 16/2/1 14/2/1 15/2/1
f 17/2/1 14/2/1 16/2/1
f 18/2/1 14/2/1 17/2/1
f 19/2/1 17/2/1 16/2/1
f 20/2/1 17/2/1 19/2/1
f 23/2/1 22/2/1 21/2/1
f 24/2/1 22/2/1 23/2/1
f 27/2/1 26/2/1 25/2/1
f 28/2/1 26/2/1 27/2/1
f 31/2/1 30/2/1 29/2/1
f 33/2/1 31/2/1 29/2/1
f 33/2/1 32/2/1 31/2/1
f 34/2/1 32/2/1 33/2/1
f 35/2/1 32/2/1 34/2/1
f 36/2/1 32/2/1 35/2/1
f 38/2/1 35/2/1 34/2/1
f 39/2/1 35/2/1 38/2/1
f 40/2/1 35/2/1 39/2/1
f 41/2/1 38/2/1 37/2/1
f 41/2/1 39/2/1 38/2/1
f 42/2/1 39/2/1 41/2/1
f 43/2/2 44/2/2 47/2/2
f 47/2/2 44/2/2 48/2/2
f 45/2/2 46/2/2 49/2/2
f 49/2/2 46/2/2 50/2/2
f 51/2/2 52/2/2 54/2/2
f 52/2/2 53/2/2 54/2/2
f 54/2/2 53/2/2 55/2/2
f 56/2/2 57/2/2 58/2/2
f 58/2/2 57/2/2 59/2/2
f 60/2/2 61/2/2 62/2/2
f 62/2/2 61/2/2 63/2/2
f 64/2/2 65/2/2 66/2/2
f 66/2/2 65/2/2 67/2/2
f 68/2/2 69/2/2 70/2/2
f 70/2/2 69/2/2 71/2/2
f 71/2/2 69/2/2 72/2/2
f 72/2/2 69/2/2 73/2/2
f 71/2/2 72/2/2 74/2/2
f 74/2/2 72/2/2 75/2/2
f 76/4/2 77/4/2 78/4/2
f 78/4/2 77/4/2 79/4/2
f 76/4/2 78/4/2 80/4/2
f 79/4/2 77/4/2 81/4/2
f 76/4/2 80/4/2 82/4/2
f 80/4/2 81/4/2 82/4/2
f 81/4/2 77/4/2 83/4/2
f 82/4/2 81/4/2 83/4/2
f 86/3/3 85/3/3 84/3/3
f 87/3/3 85/3/3 86/3/3
f 88/2/3 87/2/3 86/2/3
f 89/2/3 87/2/3 88/2/3
f 90/2/3 88/2/3 86/2/3
f 90/1/3 89/1/3 88/1/3
f 91/2/3 87/2/3 89/2/3
f 91/1/3 89/1/3 90/1/3
f 92/2/3 90/2/3 86/2/3
f 92/2/3 91/2/3 90/2/3
f 93/2/3 87/2/3 91/2/3
f 93/2/3 91/2/3 92/2/3
f 94/2/3 92/2/3 86/2/3
f 94/1/3 93/1/3 92/1/3
f 95/2/3 87/2/3 93/2/3
f 95/1/3 93/1/3 94/1/3
f 96/2/3 94/2/3 86/2/3
f 96/2/3 95/2/3 94/2/3
f 97/2/3 87/2/3 95/2/3
f 97/2/3 95/2/3 96/2/3
f 98/4/3 97/4/3 96/4/3
f 99/4/3 97/4/3 98/4/3
f 102/2/3 101/2/3 100/2/3
f 106/2/3 105/2/3 104/2/3
f 107/2/3 105/2/3 106/2/3
f 108/2/3 102/2/3 100/2/3
f 108/2/3 103/2/3 102/2/3
f 109/2/3 103/2/3 108/2/3
f 110/2/3 108/2/3 100/2/3
f 111/2/3 108/2/3 110/2/3
f 114/2/3 113/2/3 112/2/3
f 115/2/3 113/2/3 114/2/3
f 118/2/3 117/2/3 116/2/3
f 119/2/3 117/2/3 118/2/3
f 120/2/3 117/2/3 119/2/3
f 121/2/3 117/2/3 120/2/3
f 125/2/3 123/2/3 122/2/3
f 126/2/3 123/2/3 125/2/3
f 128/2/3 125/2/3 124/2/3
f 128/2/3 126/2/3 125/2/3
f 129/2/3 126/2/3 128/2/3
f 130/2/3 126/2/3 129/2/3
f 131/2/3 128/2/3 127/2/3
f 131/2/3 129/2/3 128/2/3
f 132/2/3 129/2/3 131/2/3
f 135/3/3 134/3/3 133/3/3
f 136/3/3 134/3/3 135/3/3
f 139/4/3 138/4/3 137/4/3
f 140/4/3 138/4/3 139/4/3
f 141/3/4 142/3/4 143/3/4
f 143/3/4 142/3/4 144/3/4
f 145/4/4 146/4/4 147/4/4
f 147/4/4 146/4/4 148/4/4
f 149/2/4 150/2/4 151/2/4
f 151/2/4 150/2/4 152/2/4
f 153/2/4 154/2/4 155/2/4
f 155/2/4 154/2/4 156/2/4
f 157/2/4 158/2/4 160/2/4
f 159/2/4 160/2/4 161/2/4
f 160/2/4 158/2/4 162/2/4
f 161/2/4 160/2/4 162/2/4
f 163/2/4 164/2/4 165/2/4
f 163/2/4 165/2/4 167/2/4
f 165/2/4 166/2/4 167/2/4
f 167/2/4 166/2/4 168/2/4
f 163/2/4 167/2/4 169/2/4
f 169/2/4 167/2/4 170/2/4
f 171/2/4 172/2/4 173/2/4
f 173/2/4 172/2/4 174/2/4
f 175/3/4 176/3/4 177/3/4
f 177/3/4 176/3/4 178/3/4
f 177/2/4 178/2/4 179/2/4
f 179/2/4 178/2/4 180/2/4
f 177/2/4 179/2/4 181/2/4
f 179/1/4 180/1/4 181/1/4
f 180/2/4 178/2/4 182/2/4
f 181/1/4 180/1/4 182/1/4
f 177/2/4 181/2/4 183/2/4
f 181/2/4 182/2/4 183/2/4
f 182/2/4 178/2/4 184/2/4
f 183/2/4 182/2/4 184/2/4
f 177/2/4 183/2/4 185/2/4
f 183/1/4 184/1/4 185/1/4
f 184/2/4 178/2/4 186/2/4
f 185/1/4 184/1/4 186/1/4
f 177/2/4 185/2/4 187/2/4
f 185/2/4 186/2/4 187/2/4
f 186/2/4 178/2/4 188/2/4
f 187/2/4 186/2/4 188/2/4
f 187/4/4 188/4/4 189/4/4
f 189/4/4 188/4/4 190/4/4
f 195/3/5 192/3/5 191/3/5
f 196/2/5 193/2/5 192/2/5
f 196/3/5 192/3/5 195/3/5
f 197/4/5 194/4/5 193/4/5
f 197/2/5 193/2/5 196/2/5
f 198/4/5 194/4/5 197/4/5
f 203/3/5 200/3/5 199/3/5
f 204/3/5 200/3/5 203/3/5
f 205/4/5 202/4/5 201/4/5
f 206/4/5 202/4/5 205/4/5
f 209/2/5 208/2/5 207/2/5
f 210/2/5 208/2/5 209/2/5
f 211/3/6 212/3/6 215/3/6
f 215/3/6 212/3/6 216/3/6
f 213/4/6 214/4/6 217/4/6
f 217/4/6 214/4/6 218/4/6
f 219/3/6 220/3/6 223/3/6
f 220/2/6 221/2/6 223/2/6
f 221/4/6 222/4/6 224/4/6
f 223/2/6 221/2/6 224/2/6
f 219/3/6 223/3/6 225/3/6
f 224/4/6 222/4/6 226/4/6
f 219/3/6 225/3/6 227/3/6
f 225/2/6 226/2/6 228/2/6
f 227/3/6 225/3/6 228/3/6
f 226/4/6 222/4/6 229/4/6
f 228/2/6 226/2/6 229/2/6
f 229/4/6 222/4/6 230/4/6
f 231/2/6 232/2/6 235/2/6
f 235/2/6 232/2/6 236/2/6
f 233/2/6 234/2/6 237/2/6
f 237/2/6 234/2/6 238/2/6
f 239/2/6 240/2/6 241/2/6
f 239/2/6 241/2/6 243/2/6
f 241/2/6 242/2/6 243/2/6
f 243/2/6 242/2/6 244/2/6
f 245/2/6 246/2/6 247/2/6
f 247/2/6 246/2/6 248/2/6
f 245/2/6 247/2/6 249/2/6
f 249/2/6 247/2/6 250/2/6
f 248/2/6 246/2/6 251/2/6
f 251/2/6 246/2/6 252/2/6
f 253/2/6 254/2/6 257/2/6
f 257/2/6 254/2/6 258/2/6
f 255/2/6 256/2/6 260/2/6
f 258/2/6 254/2/6 261/2/6
f 261/2/6 254/2/6 262/2/6
f 259/2/6 260/2/6 263/2/6
f 260/2/6 256/2/6 264/2/6
f 263/2/6 260/2/6 264/2/6
f 265/2/6 266/2/6 267/2/6
f 267/2/6 266/2/6 268/2/6
f 269/2/6 270/2/6 271/2/6
f 271/2/6 270/2/6 272/2/6
f 273/2/6 274/2/6 276/2/6
f 275/2/6 276/2/6 277/2/6
f 276/2/6 274/2/6 278/2/6
f 277/2/6 276/2/6 278/2/6
f 279/2/6 280/2/6 281/2/6
f 281/2/6 280/2/6 282/2/6
